<svg width="30" height="23" viewBox="0 0 30 23" fill="none" xmlns="http://www.w3.org/2000/svg">
<path d="M9.90318 0.560411L0.548937 10.1273C-0.181677 10.8745 -0.181677 12.0859 0.548937 12.8332L9.90318 22.3999C10.6338 23.147 11.8184 23.147 12.549 22.3999C13.2796 21.6527 13.2796 20.4412 12.549 19.694L6.38837 13.3935H28.0637C29.097 13.3935 29.9346 12.5369 29.9346 11.4801C29.9346 10.4234 29.0971 9.56675 28.0637 9.56675H6.38837L12.5489 3.26625C12.9142 2.89264 13.0969 2.40293 13.0969 1.91336C13.0969 1.42372 12.9143 0.934019 12.549 0.560411C11.8183 -0.186804 10.6339 -0.186804 9.90318 0.560411Z" fill="white"/>
</svg>
