<svg width="41" height="30" viewBox="0 0 41 30" fill="none" xmlns="http://www.w3.org/2000/svg">
<path opacity="0.5" d="M20.4978 1.47999C15.6411 1.46519 10.861 2.70593 6.60962 5.08482C9.74504 2.1992 15.2283 0.537786 15.2283 0.537786L14.7104 0.00657083C9.56379 0.100572 4.90274 3.76662 4.90274 3.76662L4.90274 3.76662C1.78656 10.3117 0.113613 17.4654 0 24.731C1.2499 26.3831 2.85989 27.7201 4.70421 28.6375C6.54058 29.5513 8.55821 30.0148 10.5996 29.9973L12.7639 27.1772H12.7639C10.2735 26.4776 8.08581 24.9539 6.5492 22.8488H6.5492C10.7423 25.4712 15.5723 26.8615 20.5 26.8646C25.42 26.8646 30.2429 25.4765 34.4486 22.8532C32.9119 24.9563 30.725 26.4783 28.236 27.1773L30.4004 29.9995C32.444 30.0178 34.4635 29.5522 36.2979 28.6397C38.1414 27.7219 39.7506 26.385 41 24.7332V24.7334C40.887 17.4662 39.2141 10.311 36.0973 3.76454C36.0973 3.76454 31.4362 0.0940028 26.2896 0L25.7717 0.533403C25.7717 0.533403 31.2528 2.19482 34.3904 5.07825L34.3904 5.07825C30.1384 2.69899 25.3575 1.45824 20.5 1.47341L20.5 1.47997L20.4978 1.47999ZM14.1925 13.3613C15.1843 13.3963 16.1193 13.8391 16.782 14.5877H16.782C17.4565 15.3392 17.8075 16.332 17.7573 17.3465V17.3465C17.8436 18.3679 17.5102 19.3802 16.8359 20.1447C16.1644 20.8974 15.2112 21.329 14.2097 21.3339C13.2066 21.3348 12.2509 20.9012 11.5836 20.1425H11.5836C10.905 19.3814 10.571 18.3679 10.6622 17.3465C10.6155 16.3386 10.9602 15.3522 11.6224 14.5986C12.2817 13.8564 13.2059 13.4111 14.1903 13.3613H14.1925H14.1925ZM26.8939 13.3613C27.6729 13.2869 28.4562 13.4596 29.1381 13.851C29.8243 14.2444 30.3767 14.8412 30.7241 15.5626C31.4351 17.0407 31.1947 18.8073 30.1156 20.0353C29.0477 21.2559 27.3401 21.6692 25.843 21.0694H25.843C25.1108 20.7765 24.4834 20.2658 24.0433 19.6047C23.5991 18.9375 23.3617 18.1512 23.3614 17.3465C23.3204 16.3365 23.67 15.3506 24.3324 14.6051C24.9883 13.8607 25.9103 13.4121 26.8938 13.3591L26.8939 13.3613Z" fill="#1E3676"/>
</svg>
