<svg width="34" height="29" viewBox="0 0 34 29" fill="none" xmlns="http://www.w3.org/2000/svg">
<path opacity="0.5" d="M34 0.619087L31.289 3.41105C31.0518 3.60527 30.9389 3.92089 30.9841 4.22436V24.7756C30.9389 25.0912 31.0518 25.4069 31.289 25.5889L33.9435 28.3809V29H20.6146V28.4052L23.3595 25.5404C23.6306 25.2491 23.6306 25.1641 23.6306 24.7271V8.10883L15.9947 28.9393H14.9668L6.07708 8.10883V22.0686C5.99801 22.6513 6.19003 23.2461 6.57409 23.671L10.1435 28.3202V28.9393H0V28.3202L3.56944 23.671C3.95349 23.2461 4.12292 22.6513 4.03256 22.0686V5.92382C4.07774 5.47468 3.9196 5.03767 3.60332 4.7342L0.429236 0.619087V0H10.2904L17.9037 17.9657L24.602 0.0121389H34V0.619087Z" fill="#1E3676"/>
</svg>
