<svg width="32" height="29" viewBox="0 0 32 29" fill="none" xmlns="http://www.w3.org/2000/svg">
<path opacity="0.5" d="M21.7577 0.0393025L20.9481 0.155708C20.4519 0.272114 19.9556 0.446722 19.4855 0.650432C17.6283 1.55511 16.2566 3.37414 15.7769 5.56857C15.5157 6.70353 15.5157 7.89668 15.7769 9.00253C14.7844 9.00253 13.792 8.85703 12.8518 8.56601C9.91956 7.83677 7.1816 6.35167 4.85778 4.22991C4.14302 3.60532 3.49395 2.89266 2.92294 2.10551C2.70262 1.86352 2.50163 1.60061 2.32225 1.31977V1.31977C2.01666 1.91471 1.77973 2.55027 1.61708 3.21136L1.61708 3.21136C1.12301 5.56554 1.66631 8.04113 3.07964 9.87559C3.41917 10.3412 3.94151 10.6322 4.28103 11.0396H4.28103C3.98328 11.0977 3.67708 11.0676 3.39305 10.9523H3.39305C2.91844 10.865 2.45414 10.7186 2.00884 10.5158L1.30368 10.2248V10.2248C1.22279 12.7902 2.40446 15.2004 4.3855 16.5107C5.01231 17.0345 5.74359 17.3547 6.5271 17.4711C6.10923 17.8785 4.25491 17.7039 3.60199 17.6166C4.25491 19.8283 5.79582 21.5453 7.75678 22.3019C8.3836 22.5638 9.03653 22.6802 9.68945 22.6802C9.14702 23.1869 8.55052 23.617 7.91349 23.9607C6.68586 24.7072 5.36563 25.2466 3.99592 25.5613C3.39522 25.7068 2.76841 25.6777 2.08937 25.7941H2.08937C1.39217 25.8522 0.691325 25.8229 0 25.7068L0.574578 26.0851C1.17527 26.4925 1.77597 26.8417 2.42889 27.1327C3.68252 27.7148 4.96225 28.1804 6.26811 28.5296C9.34993 29.2571 12.5645 29.1407 15.5941 28.1804C22.4389 25.7941 26.7744 20.2066 28.422 11.9709C28.6831 10.4285 28.7876 8.82794 28.7354 7.25646L29.78 6.29611C30.6482 5.47946 31.3972 4.51731 32 3.44418V3.44418C30.8209 4.02472 29.5711 4.40719 28.2914 4.57913C28.5525 4.43363 28.7876 4.22992 29.0226 3.99711C30.0151 3.09496 30.7464 1.90181 31.1381 0.563142L30.3285 1.05787C29.2685 1.68608 28.1204 2.10921 26.9333 2.30923C25.6041 0.737255 23.7216 -0.103561 21.786 0.010219V0.0393204H21.7578L21.7577 0.0393025Z" fill="#1E3676"/>
</svg>
