<?xml version="1.0" encoding="UTF-8"?>
<svg width="128px" height="128px" viewBox="0 0 128 128" version="1.1" xmlns="http://www.w3.org/2000/svg" xmlns:xlink="http://www.w3.org/1999/xlink">
    <title>favicon</title>
    <defs>
        <linearGradient x1="100%" y1="100%" x2="0%" y2="0%" id="linearGradient-1">
            <stop stop-color="#FF0050" offset="0%"></stop>
            <stop stop-color="#7000FF" offset="71.4447846%"></stop>
            <stop stop-color="#0027FF" offset="100%"></stop>
        </linearGradient>
    </defs>
    <g id="favicon" stroke="none" stroke-width="1" fill="none" fill-rule="evenodd">
        <circle id="椭圆形" fill="url(#linearGradient-1)" fill-rule="nonzero" cx="64" cy="64" r="64"></circle>
        <path d="M101.067854,38.0606061 C103.448596,38.0606061 105.378569,40.0414069 105.378569,42.4848485 C105.378569,44.9282901 103.448596,46.9090909 101.067854,46.9090909 L101.218,46.905 L95.9505672,55.0145255 L95.8928439,55.1018824 C94.6872034,56.8956782 92.6981046,57.969697 90.5704691,57.969697 L90.5704691,57.969697 L84.1866636,57.9691335 C84.7846473,59.3737097 85.2446251,60.8543359 85.5490056,62.3929576 L99.1228202,62.3939394 L99.1924041,62.3927895 C99.886604,62.3698355 100.529336,62.0044395 100.916186,61.4088823 L100.916186,61.4088823 L105.987218,53.6011997 C105.600706,52.9380145 105.378569,52.1622985 105.378569,51.3333333 C105.378569,48.8898917 107.308542,46.9090909 109.689285,46.9090909 C112.070027,46.9090909 114,48.8898917 114,51.3333333 C114,53.776775 112.070027,55.7575758 109.689285,55.7575758 L109.769,55.755 L104.502918,63.8630104 L104.445195,63.9503673 C103.239555,65.7441631 101.250456,66.8181818 99.1228202,66.8181818 L99.1228202,66.8181818 L85.9803494,66.8181818 L85.9803494,66.8181818 C85.9803494,68.3334697 85.8319037,69.8131732 85.5491236,71.2428093 L99.1228202,71.2424242 C101.250456,71.2424242 103.239555,72.3164429 104.445195,74.1102388 L104.502918,74.1975956 L109.769,82.305 L109.898143,82.3081322 C112.181885,82.4199482 114,84.355697 114,86.7272727 C114,89.1707143 112.070027,91.1515152 109.689285,91.1515152 C107.308542,91.1515152 105.378569,89.1707143 105.378569,86.7272727 C105.378569,85.8985298 105.600586,85.1230074 105.986907,84.4599397 L100.916186,76.6517238 C100.529336,76.0561666 99.886604,75.6907706 99.1924041,75.6678165 L99.1228202,75.6666667 L84.1869829,75.6664801 C83.5145749,77.2460283 82.6676385,78.7294065 81.6711908,80.0909387 L90.5013892,80.0909091 C92.6290247,80.0909091 94.6181236,81.1649278 95.823764,82.9587236 L95.8814873,83.0460805 L101.147,91.153 L101.276712,91.156617 C103.560454,91.2684331 105.378569,93.2041819 105.378569,95.5757576 C105.378569,98.0191992 103.448596,100 101.067854,100 C98.6871112,100 96.7571381,98.0191992 96.7571381,95.5757576 C96.7571381,94.7467924 96.9792746,93.9710764 97.365787,93.3078912 L92.2947552,85.5002086 C91.9079051,84.9046514 91.265173,84.5392555 90.5709732,84.5163014 L90.5013892,84.5151515 L77.360043,84.5159047 C73.7575556,87.2934774 69.2794438,88.9393939 64.4267721,88.9393939 C59.5744431,88.9393939 55.0966212,87.2937099 51.4942646,84.5164933 L38.4986106,84.5151515 L38.4290266,84.5163014 C37.7348268,84.5392555 37.0920946,84.9046514 36.7052445,85.5002086 L36.7052445,85.5002086 L31.634213,93.3078912 C32.0207254,93.9710764 32.2428619,94.7467924 32.2428619,95.5757576 C32.2428619,98.0191992 30.3128888,100 27.9321464,100 C25.551404,100 23.6214309,98.0191992 23.6214309,95.5757576 C23.6214309,93.132316 25.551404,91.1515152 27.9321464,91.1515152 L27.852,91.153 L33.1185124,83.0460805 L33.1762357,82.9587236 C34.3818762,81.1649278 36.3709751,80.0909091 38.4986106,80.0909091 L38.4986106,80.0909091 L47.1823533,80.0909387 C46.1859056,78.7294065 45.3389692,77.2460283 44.6665612,75.6664801 L29.8771797,75.6666667 L29.8075957,75.6678165 C29.1133958,75.6907706 28.4706637,76.0561666 28.0838136,76.6517238 L28.0838136,76.6517238 L23.0130928,84.4599397 C23.3994136,85.1230074 23.6214309,85.8985298 23.6214309,86.7272727 C23.6214309,89.1707143 21.6914579,91.1515152 19.3107155,91.1515152 C16.9299731,91.1515152 15,89.1707143 15,86.7272727 C15,84.2838311 16.9299731,82.3030303 19.3107155,82.3030303 L19.23,82.305 L24.4970815,74.1975956 L24.5548048,74.1102388 C25.7604453,72.3164429 27.7495442,71.2424242 29.8771797,71.2424242 L29.8771797,71.2424242 L43.3044205,71.2428093 C43.0216404,69.8131732 42.8731947,68.3334697 42.8731947,66.8181818 L29.8771797,66.8181818 C27.7495442,66.8181818 25.7604453,65.7441631 24.5548048,63.9503673 L24.4970815,63.8630104 L19.23,55.755 L19.1018574,55.7524739 C16.8181148,55.6406579 15,53.704909 15,51.3333333 C15,48.8898917 16.9299731,46.9090909 19.3107155,46.9090909 C21.6914579,46.9090909 23.6214309,48.8898917 23.6214309,51.3333333 C23.6214309,52.1622985 23.3992945,52.9380145 23.012782,53.6011997 L28.0838136,61.4088823 C28.4706637,62.0044395 29.1133958,62.3698355 29.8075957,62.3927895 L29.8771797,62.3939394 L43.3045385,62.3929576 C43.608919,60.8543359 44.0688968,59.3737097 44.6668805,57.9691335 L38.4295307,57.969697 C36.3018952,57.969697 34.3127964,56.8956783 33.1071558,55.1018825 L33.0494326,55.0145256 L27.781,46.905 L27.7232884,46.903989 C25.4395457,46.792173 23.6214309,44.8564242 23.6214309,42.4848485 C23.6214309,40.0414069 25.551404,38.0606061 27.9321464,38.0606061 C30.3128888,38.0606061 32.2428619,40.0414069 32.2428619,42.4848485 C32.2428619,43.3368544 32.0082054,44.13261 31.6016044,44.8077517 L36.6361647,52.5603974 C37.0230147,53.1559546 37.6657469,53.5213506 38.3599467,53.5443047 L38.4295307,53.5454545 L47.1823533,53.545425 C51.1146165,48.1724352 57.3752398,44.6969697 64.4267721,44.6969697 C71.4783044,44.6969697 77.7389276,48.1724352 81.6711908,53.545425 L90.5704691,53.5454545 L90.640053,53.5443048 C91.3342529,53.5213506 91.976985,53.1559547 92.3638351,52.5603974 L92.3638351,52.5603974 L97.3983956,44.8077517 C96.9917946,44.13261 96.7571381,43.3368544 96.7571381,42.4848485 C96.7571381,40.0414069 98.6871112,38.0606061 101.067854,38.0606061 Z M64.4267721,49.1212121 C54.9038024,49.1212121 47.1839102,57.0444153 47.1839102,66.8181818 C47.1839102,76.5919483 54.9038024,84.5151515 64.4267721,84.5151515 C73.9497417,84.5151515 81.6696339,76.5919483 81.6696339,66.8181818 C81.6696339,57.0444153 73.9497417,49.1212121 64.4267721,49.1212121 Z M64.4267721,53.5454545 C71.5689993,53.5454545 77.3589185,59.487857 77.3589185,66.8181818 C77.3589185,74.1485067 71.5689993,80.0909091 64.4267721,80.0909091 C57.2845448,80.0909091 51.4946256,74.1485067 51.4946256,66.8181818 C51.4946256,59.487857 57.2845448,53.5454545 64.4267721,53.5454545 Z M79.5142762,27 L79.7684765,27.0037725 C84.4123854,27.1417808 88.1357072,31.0488674 88.1357072,35.8484848 C88.1357072,40.7353681 84.275761,44.6969697 79.5142762,44.6969697 C74.7527914,44.6969697 70.8928453,40.7353681 70.8928453,35.8484848 C70.8928453,33.4050432 71.8578319,31.192922 73.418004,29.5916612 L73.418004,29.5916612 L79.5142762,35.8484848 L79.5142762,27 Z M49.3392679,27 L49.3392679,35.8484848 L54.1221472,28.4853648 C56.4364807,30.0720717 57.9606988,32.7775903 57.9606988,35.8484848 C57.9606988,40.7353681 54.1007527,44.6969697 49.3392679,44.6969697 C44.5777831,44.6969697 40.717837,40.7353681 40.717837,35.8484848 C40.717837,30.9616016 44.5777831,27 49.3392679,27 Z" id="形状结合" fill="#FFFFFF" fill-rule="nonzero"></path>
    </g>
</svg>