<svg width="30" height="23" viewBox="0 0 30 23" fill="none" xmlns="http://www.w3.org/2000/svg">
<path d="M9.90293 0.560411L0.548693 10.1273C-0.181921 10.8745 -0.181921 12.0859 0.548693 12.8332L9.90293 22.3999C10.6335 23.147 11.8181 23.147 12.5487 22.3999C13.2794 21.6527 13.2794 20.4412 12.5487 19.694L6.38813 13.3935H28.0635C29.0968 13.3935 29.9344 12.5369 29.9344 11.4801C29.9344 10.4234 29.0968 9.56675 28.0635 9.56675H6.38813L12.5487 3.26625C12.914 2.89264 13.0966 2.40293 13.0966 1.91336C13.0966 1.42372 12.914 0.934019 12.5487 0.560411C11.818 -0.186804 10.6336 -0.186804 9.90293 0.560411Z" fill="white"/>
</svg>
