<svg width="19" height="19" viewBox="0 0 19 19" fill="none" xmlns="http://www.w3.org/2000/svg">
<path fill-rule="evenodd" clip-rule="evenodd" d="M2.38481 1.23564C2.77534 0.845118 3.4085 0.845118 3.79903 1.23564L9.50007 6.93669L15.2011 1.23564C15.5916 0.845118 16.2248 0.845118 16.6153 1.23564L17.7644 2.38469C18.1549 2.77521 18.1549 3.40838 17.7644 3.7989L12.0633 9.49995L17.7644 15.201C18.1549 15.5915 18.1549 16.2247 17.7644 16.6152L16.6153 17.7643C16.2248 18.1548 15.5916 18.1548 15.2011 17.7643L9.50007 12.0632L3.79903 17.7643C3.4085 18.1548 2.77534 18.1548 2.38481 17.7643L1.23577 16.6152C0.845241 16.2247 0.845241 15.5915 1.23577 15.201L6.93681 9.49995L1.23576 3.7989C0.84524 3.40838 0.84524 2.77521 1.23576 2.38469L2.38481 1.23564Z" fill="black"/>
</svg>
